<svg width="60" height="60" viewBox="0 0 60 60" fill="none" xmlns="http://www.w3.org/2000/svg">
<rect width="60" height="60" rx="13" fill="url(#paint0_radial_3_20)"/>
<path fill-rule="evenodd" clip-rule="evenodd" d="M10.3571 14.7738C11.5995 13.5313 13.2846 12.8333 15.0417 12.8333H45.9583C47.7154 12.8333 49.4005 13.5313 50.6429 14.7738C51.8853 16.0162 52.5833 17.7013 52.5833 19.4583V26.0833C52.5833 26.669 52.3507 27.2307 51.9365 27.6449C51.5224 28.059 50.9607 28.2917 50.375 28.2917C49.7893 28.2917 49.2276 28.5243 48.8135 28.9385C48.3993 29.3526 48.1667 29.9143 48.1667 30.5C48.1667 31.0857 48.3993 31.6474 48.8135 32.0615C49.2276 32.4757 49.7893 32.7083 50.375 32.7083C51.5946 32.7083 52.5833 33.697 52.5833 34.9167V41.5417C52.5833 43.2987 51.8853 44.9838 50.6429 46.2263C49.4005 47.4687 47.7154 48.1667 45.9583 48.1667H15.0417C13.2846 48.1667 11.5995 47.4687 10.3571 46.2263C9.11465 44.9838 8.41666 43.2987 8.41666 41.5417V34.9167C8.41666 33.697 9.40536 32.7083 10.625 32.7083C11.2107 32.7083 11.7724 32.4757 12.1865 32.0615C12.6007 31.6474 12.8333 31.0857 12.8333 30.5C12.8333 29.9143 12.6007 29.3526 12.1865 28.9385C11.7724 28.5243 11.2107 28.2917 10.625 28.2917C9.40536 28.2917 8.41666 27.303 8.41666 26.0833V19.4583C8.41666 17.7013 9.11465 16.0162 10.3571 14.7738ZM39.3333 43.75V41.5417C39.3333 40.322 38.3446 39.3333 37.125 39.3333C35.9054 39.3333 34.9167 40.322 34.9167 41.5417V43.75H15.0417C14.456 43.75 13.8943 43.5173 13.4801 43.1032C13.066 42.6891 12.8333 42.1274 12.8333 41.5417V36.7461C13.7562 36.4198 14.6042 35.8899 15.3096 35.1846C16.552 33.9422 17.25 32.2571 17.25 30.5C17.25 28.743 16.552 27.0579 15.3096 25.8154C14.6042 25.1101 13.7562 24.5802 12.8333 24.2539V19.4583C12.8333 18.8727 13.066 18.311 13.4801 17.8968C13.8943 17.4827 14.456 17.25 15.0417 17.25H34.9167V19.4583C34.9167 20.678 35.9054 21.6667 37.125 21.6667C38.3446 21.6667 39.3333 20.678 39.3333 19.4583V17.25H45.9583C46.544 17.25 47.1057 17.4827 47.5199 17.8968C47.934 18.311 48.1667 18.8727 48.1667 19.4583V24.2539C47.2438 24.5802 46.3958 25.1101 45.6904 25.8154C44.448 27.0579 43.75 28.7429 43.75 30.5C43.75 32.2571 44.448 33.9422 45.6904 35.1846C46.3958 35.8899 47.2438 36.4198 48.1667 36.7461V41.5417C48.1667 42.1274 47.934 42.6891 47.5199 43.1032C47.1057 43.5173 46.544 43.75 45.9583 43.75H39.3333ZM37.125 26.0833C38.3446 26.0833 39.3333 27.072 39.3333 28.2917V32.7083C39.3333 33.928 38.3446 34.9167 37.125 34.9167C35.9054 34.9167 34.9167 33.928 34.9167 32.7083V28.2917C34.9167 27.072 35.9054 26.0833 37.125 26.0833Z" fill="url(#paint1_radial_3_20)"/>
<mask id="mask0_3_20" style="mask-type:alpha" maskUnits="userSpaceOnUse" x="0" y="0" width="60" height="60">
<rect width="60" height="60" rx="13" fill="url(#paint2_radial_3_20)"/>
</mask>
<g mask="url(#mask0_3_20)">
<g style="mix-blend-mode:color-burn" opacity="0.2">
<rect width="60" height="60" fill="url(#paint3_radial_3_20)"/>
</g>
</g>
<defs>
<radialGradient id="paint0_radial_3_20" cx="0" cy="0" r="1" gradientUnits="userSpaceOnUse" gradientTransform="translate(30 60) rotate(-90) scale(66.7826 66.7826)">
<stop stop-color="#DC2626"/>
<stop offset="1" stop-color="#FB7185"/>
</radialGradient>
<radialGradient id="paint1_radial_3_20" cx="0" cy="0" r="1" gradientUnits="userSpaceOnUse" gradientTransform="translate(30.5 54.8629) rotate(-90) scale(49.9226 62.4032)">
<stop stop-color="white" stop-opacity="0.95"/>
<stop offset="1" stop-color="white"/>
</radialGradient>
<radialGradient id="paint2_radial_3_20" cx="0" cy="0" r="1" gradientUnits="userSpaceOnUse" gradientTransform="translate(30 60) rotate(-90) scale(66.7826 66.7826)">
<stop stop-color="#DC2626"/>
<stop offset="1" stop-color="#FB7185"/>
</radialGradient>
<radialGradient id="paint3_radial_3_20" cx="0" cy="0" r="1" gradientUnits="userSpaceOnUse" gradientTransform="translate(30 60) rotate(-90) scale(80.625 209.023)">
<stop/>
<stop offset="1" stop-opacity="0"/>
</radialGradient>
</defs>
</svg>
